<svg width="76" height="36" viewBox="0 0 76 36" fill="none" xmlns="http://www.w3.org/2000/svg">
<path d="M50.2644 0.180664H44.4412V26.2813H50.2702V0.180664H50.2644Z" fill="white"/>
<path d="M33.5053 5.63477C27.2545 5.63477 24.7877 8.65037 24.2909 12.856H29.8946C30.4203 11.1114 31.5642 10.4412 33.2569 10.4412C35.4752 10.4412 36.3938 11.6371 36.3938 13.8035V14.6527H31.1656C25.8392 14.6527 23.667 17.1657 23.667 20.8283C23.667 24.7856 26.3071 26.7036 29.7964 26.7036C33.2106 26.7036 35.4983 25.8544 36.3938 22.4228V26.2819H42.1708V13.7515C42.1708 8.59838 39.6347 5.63477 33.5053 5.63477ZM36.3938 18.5349C36.3938 20.5742 34.7762 22.0242 32.3094 22.0242C30.091 22.0242 29.3227 21.0536 29.3227 19.8058C29.3227 18.7082 30.3452 17.9398 32.0379 17.9398H36.3707V18.5349H36.3938Z" fill="white"/>
<path d="M63.4418 5.68582C60.6515 5.55873 57.9363 6.53504 55.8681 8.42413C53.7999 10.319 52.581 12.9302 52.4308 15.7205L52.3788 26.2578L62.9161 26.7546C64.2852 26.7546 65.6775 26.5062 66.9484 25.9574C68.2194 25.4317 69.3863 24.6633 70.3858 23.6928C71.3563 22.7223 72.1535 21.5495 72.6793 20.2786C73.205 19.0076 73.4996 17.6385 73.4996 16.2462C73.5227 13.531 72.4771 10.914 70.6111 8.94984C68.722 6.97987 66.157 5.80714 63.4418 5.68582ZM66.2032 19.4814C65.354 20.3537 64.187 20.8505 62.9623 20.8736L58.2078 20.6483L58.2309 15.8649C58.306 14.6922 58.8317 13.5715 59.6983 12.7742C60.5706 11.977 61.6913 11.5264 62.8872 11.5264C62.9623 11.5264 63.0374 11.5264 63.1125 11.5264C64.3083 11.5784 65.4522 12.0983 66.2783 12.9706C67.0986 13.843 67.5724 15.0099 67.5724 16.2058C67.5493 17.4421 67.0524 18.609 66.2032 19.4814Z" fill="white"/>
<path d="M9.94658 27.0029C13.0835 27.0029 15.1286 25.8302 16.2724 24.4379L16.2955 26.2288C16.2955 29.0653 14.7993 30.7118 12.2112 30.7118C10.6167 30.7118 9.9928 30.1861 9.51908 29.0942H3.39544C3.69584 30.342 4.36598 32.0578 5.81023 33.427C7.47979 34.9983 9.77327 35.8187 12.6329 35.8187C15.4463 35.8187 17.8149 34.9001 19.4787 33.1786C21.0731 31.509 21.9455 29.2444 21.9455 26.5812V6.65625H16.1222V17.2398C16.1222 18.4876 15.7756 19.4581 15.0997 20.1514C15.0766 20.1745 15.0477 20.2265 15.0015 20.2496C14.9784 20.2727 14.9264 20.3247 14.9033 20.3478L14.8802 20.3709C14.8282 20.394 14.8051 20.446 14.7531 20.4691C14.7011 20.4922 14.678 20.5211 14.626 20.5673C13.9501 21.0641 13.0546 21.3414 11.9628 21.3414C10.2701 21.3414 9.24756 20.6713 8.69875 19.5737C8.37523 18.9266 8.22503 18.1294 8.22503 17.2571V6.67936H2.5V18.1121C2.55199 23.4443 5.38851 27.0029 9.94658 27.0029Z" fill="white"/>
</svg>
